<mxfile host="app.diagrams.net" agent="Mozilla/5.0 (Windows NT 10.0; Win64; x64) AppleWebKit/537.36 (KHTML, like Gecko) Chrome/136.0.0.0 Safari/537.36 Edg/136.0.0.0" version="26.2.10">
  <diagram name="Page-1" id="rlRXOSuQJJspuhZDfY3l">
    <mxGraphModel dx="893" dy="1633" grid="1" gridSize="10" guides="1" tooltips="1" connect="1" arrows="1" fold="1" page="1" pageScale="1" pageWidth="850" pageHeight="1100" math="0" shadow="0">
      <root>
        <mxCell id="0" />
        <mxCell id="1" parent="0" />
        <mxCell id="GcgV9i9hBGdFXFpDnu0g-11" value="" style="edgeStyle=orthogonalEdgeStyle;rounded=0;orthogonalLoop=1;jettySize=auto;html=1;" edge="1" parent="1" source="GcgV9i9hBGdFXFpDnu0g-1">
          <mxGeometry relative="1" as="geometry">
            <mxPoint x="95" y="120" as="targetPoint" />
          </mxGeometry>
        </mxCell>
        <mxCell id="GcgV9i9hBGdFXFpDnu0g-1" value="Member&lt;div&gt;&lt;br&gt;&lt;/div&gt;" style="shape=umlActor;verticalLabelPosition=bottom;verticalAlign=top;html=1;outlineConnect=0;" vertex="1" parent="1">
          <mxGeometry x="80" y="20" width="30" height="60" as="geometry" />
        </mxCell>
        <mxCell id="GcgV9i9hBGdFXFpDnu0g-5" value="" style="endArrow=none;dashed=1;html=1;rounded=0;" edge="1" parent="1">
          <mxGeometry width="50" height="50" relative="1" as="geometry">
            <mxPoint x="94.78571428571433" y="120" as="sourcePoint" />
            <mxPoint x="94.5" y="100" as="targetPoint" />
            <Array as="points" />
          </mxGeometry>
        </mxCell>
        <mxCell id="GcgV9i9hBGdFXFpDnu0g-7" value="" style="endArrow=none;dashed=1;html=1;rounded=0;" edge="1" parent="1">
          <mxGeometry width="50" height="50" relative="1" as="geometry">
            <mxPoint x="90" y="1020" as="sourcePoint" />
            <mxPoint x="93.5" y="120" as="targetPoint" />
            <Array as="points">
              <mxPoint x="94.5" y="130" />
            </Array>
          </mxGeometry>
        </mxCell>
        <mxCell id="GcgV9i9hBGdFXFpDnu0g-9" value="Application UI" style="rounded=0;whiteSpace=wrap;html=1;" vertex="1" parent="1">
          <mxGeometry x="280" y="20" width="120" height="60" as="geometry" />
        </mxCell>
        <mxCell id="GcgV9i9hBGdFXFpDnu0g-12" value="" style="endArrow=none;dashed=1;html=1;rounded=0;" edge="1" parent="1" source="GcgV9i9hBGdFXFpDnu0g-15">
          <mxGeometry width="50" height="50" relative="1" as="geometry">
            <mxPoint x="340" y="480" as="sourcePoint" />
            <mxPoint x="340" y="80" as="targetPoint" />
          </mxGeometry>
        </mxCell>
        <mxCell id="GcgV9i9hBGdFXFpDnu0g-13" value="" style="endArrow=classic;html=1;rounded=0;entryX=-0.07;entryY=0.085;entryDx=0;entryDy=0;entryPerimeter=0;" edge="1" parent="1" target="GcgV9i9hBGdFXFpDnu0g-15">
          <mxGeometry width="50" height="50" relative="1" as="geometry">
            <mxPoint x="90" y="130" as="sourcePoint" />
            <mxPoint x="330" y="140" as="targetPoint" />
          </mxGeometry>
        </mxCell>
        <mxCell id="GcgV9i9hBGdFXFpDnu0g-14" value="&lt;div&gt;Login(credentials)&lt;/div&gt;" style="text;html=1;align=center;verticalAlign=middle;whiteSpace=wrap;rounded=0;" vertex="1" parent="1">
          <mxGeometry x="390" y="110" width="100" height="20" as="geometry" />
        </mxCell>
        <mxCell id="GcgV9i9hBGdFXFpDnu0g-16" value="" style="endArrow=none;dashed=1;html=1;rounded=0;" edge="1" parent="1" source="GcgV9i9hBGdFXFpDnu0g-44" target="GcgV9i9hBGdFXFpDnu0g-15">
          <mxGeometry width="50" height="50" relative="1" as="geometry">
            <mxPoint x="340" y="480" as="sourcePoint" />
            <mxPoint x="340" y="80" as="targetPoint" />
          </mxGeometry>
        </mxCell>
        <mxCell id="GcgV9i9hBGdFXFpDnu0g-15" value="" style="rounded=0;whiteSpace=wrap;html=1;" vertex="1" parent="1">
          <mxGeometry x="330" y="120" width="20" height="130" as="geometry" />
        </mxCell>
        <mxCell id="GcgV9i9hBGdFXFpDnu0g-17" value="Service" style="rounded=0;whiteSpace=wrap;html=1;" vertex="1" parent="1">
          <mxGeometry x="500" y="20" width="120" height="60" as="geometry" />
        </mxCell>
        <mxCell id="GcgV9i9hBGdFXFpDnu0g-18" value="Database" style="rounded=0;whiteSpace=wrap;html=1;" vertex="1" parent="1">
          <mxGeometry x="730" y="20" width="120" height="60" as="geometry" />
        </mxCell>
        <mxCell id="GcgV9i9hBGdFXFpDnu0g-19" value="" style="endArrow=none;dashed=1;html=1;rounded=0;" edge="1" parent="1" source="GcgV9i9hBGdFXFpDnu0g-21">
          <mxGeometry width="50" height="50" relative="1" as="geometry">
            <mxPoint x="560" y="483.20001220703125" as="sourcePoint" />
            <mxPoint x="560" y="80" as="targetPoint" />
          </mxGeometry>
        </mxCell>
        <mxCell id="GcgV9i9hBGdFXFpDnu0g-20" value="" style="endArrow=none;dashed=1;html=1;rounded=0;" edge="1" parent="1">
          <mxGeometry width="50" height="50" relative="1" as="geometry">
            <mxPoint x="1209.5" y="390" as="sourcePoint" />
            <mxPoint x="1209.5" y="-10" as="targetPoint" />
          </mxGeometry>
        </mxCell>
        <mxCell id="GcgV9i9hBGdFXFpDnu0g-23" value="" style="endArrow=none;dashed=1;html=1;rounded=0;" edge="1" parent="1" source="GcgV9i9hBGdFXFpDnu0g-47" target="GcgV9i9hBGdFXFpDnu0g-21">
          <mxGeometry width="50" height="50" relative="1" as="geometry">
            <mxPoint x="560" y="483.20001220703125" as="sourcePoint" />
            <mxPoint x="560" y="80" as="targetPoint" />
          </mxGeometry>
        </mxCell>
        <mxCell id="GcgV9i9hBGdFXFpDnu0g-21" value="" style="rounded=0;whiteSpace=wrap;html=1;" vertex="1" parent="1">
          <mxGeometry x="550" y="120" width="20" height="100" as="geometry" />
        </mxCell>
        <mxCell id="GcgV9i9hBGdFXFpDnu0g-26" value="insert credentials&lt;div&gt;&lt;br&gt;&lt;/div&gt;" style="text;html=1;align=center;verticalAlign=middle;whiteSpace=wrap;rounded=0;" vertex="1" parent="1">
          <mxGeometry x="170" y="120" width="100" height="20" as="geometry" />
        </mxCell>
        <mxCell id="GcgV9i9hBGdFXFpDnu0g-27" value="" style="endArrow=classic;html=1;rounded=0;" edge="1" parent="1">
          <mxGeometry width="50" height="50" relative="1" as="geometry">
            <mxPoint x="350" y="140" as="sourcePoint" />
            <mxPoint x="550" y="140" as="targetPoint" />
          </mxGeometry>
        </mxCell>
        <mxCell id="GcgV9i9hBGdFXFpDnu0g-29" value="" style="rounded=0;whiteSpace=wrap;html=1;" vertex="1" parent="1">
          <mxGeometry x="790" y="120" width="20" height="60" as="geometry" />
        </mxCell>
        <mxCell id="GcgV9i9hBGdFXFpDnu0g-31" value="&lt;div&gt;Login(credentials)&lt;/div&gt;" style="text;html=1;align=center;verticalAlign=middle;whiteSpace=wrap;rounded=0;" vertex="1" parent="1">
          <mxGeometry x="640" y="110" width="100" height="20" as="geometry" />
        </mxCell>
        <mxCell id="GcgV9i9hBGdFXFpDnu0g-32" value="" style="endArrow=classic;html=1;rounded=0;exitX=1.09;exitY=0.637;exitDx=0;exitDy=0;exitPerimeter=0;" edge="1" parent="1">
          <mxGeometry width="50" height="50" relative="1" as="geometry">
            <mxPoint x="570" y="138.22000000000003" as="sourcePoint" />
            <mxPoint x="788.2" y="140" as="targetPoint" />
          </mxGeometry>
        </mxCell>
        <mxCell id="GcgV9i9hBGdFXFpDnu0g-33" value="" style="endArrow=classic;html=1;rounded=0;exitX=0;exitY=0.75;exitDx=0;exitDy=0;" edge="1" parent="1" source="GcgV9i9hBGdFXFpDnu0g-29">
          <mxGeometry width="50" height="50" relative="1" as="geometry">
            <mxPoint x="810" y="160" as="sourcePoint" />
            <mxPoint x="570" y="160" as="targetPoint" />
          </mxGeometry>
        </mxCell>
        <mxCell id="GcgV9i9hBGdFXFpDnu0g-34" value="User Data" style="text;html=1;align=center;verticalAlign=middle;whiteSpace=wrap;rounded=0;" vertex="1" parent="1">
          <mxGeometry x="660" y="170" width="60" height="30" as="geometry" />
        </mxCell>
        <mxCell id="GcgV9i9hBGdFXFpDnu0g-35" value="" style="endArrow=classic;html=1;rounded=0;entryX=1;entryY=0.5;entryDx=0;entryDy=0;" edge="1" parent="1" target="GcgV9i9hBGdFXFpDnu0g-15">
          <mxGeometry width="50" height="50" relative="1" as="geometry">
            <mxPoint x="550" y="184.5" as="sourcePoint" />
            <mxPoint x="470" y="184.5" as="targetPoint" />
          </mxGeometry>
        </mxCell>
        <mxCell id="GcgV9i9hBGdFXFpDnu0g-36" value="User Data" style="text;html=1;align=center;verticalAlign=middle;whiteSpace=wrap;rounded=0;" vertex="1" parent="1">
          <mxGeometry x="410" y="190" width="60" height="30" as="geometry" />
        </mxCell>
        <mxCell id="GcgV9i9hBGdFXFpDnu0g-40" value="Response&lt;div&gt;&lt;br&gt;&lt;/div&gt;" style="html=1;verticalAlign=bottom;endArrow=open;dashed=1;endSize=8;curved=0;rounded=0;" edge="1" parent="1">
          <mxGeometry relative="1" as="geometry">
            <mxPoint x="330" y="219" as="sourcePoint" />
            <mxPoint x="90" y="220" as="targetPoint" />
          </mxGeometry>
        </mxCell>
        <mxCell id="GcgV9i9hBGdFXFpDnu0g-42" value="" style="endArrow=none;dashed=1;html=1;rounded=0;" edge="1" parent="1" source="GcgV9i9hBGdFXFpDnu0g-62">
          <mxGeometry width="50" height="50" relative="1" as="geometry">
            <mxPoint x="800" y="794.39990234375" as="sourcePoint" />
            <mxPoint x="800" y="80" as="targetPoint" />
          </mxGeometry>
        </mxCell>
        <mxCell id="GcgV9i9hBGdFXFpDnu0g-43" value="" style="endArrow=classic;html=1;rounded=0;entryX=0;entryY=0.25;entryDx=0;entryDy=0;" edge="1" parent="1" target="GcgV9i9hBGdFXFpDnu0g-44">
          <mxGeometry width="50" height="50" relative="1" as="geometry">
            <mxPoint x="100" y="300" as="sourcePoint" />
            <mxPoint x="150" y="280" as="targetPoint" />
          </mxGeometry>
        </mxCell>
        <mxCell id="GcgV9i9hBGdFXFpDnu0g-45" value="" style="endArrow=none;dashed=1;html=1;rounded=0;" edge="1" parent="1" source="GcgV9i9hBGdFXFpDnu0g-55" target="GcgV9i9hBGdFXFpDnu0g-44">
          <mxGeometry width="50" height="50" relative="1" as="geometry">
            <mxPoint x="340" y="570" as="sourcePoint" />
            <mxPoint x="340" y="250" as="targetPoint" />
          </mxGeometry>
        </mxCell>
        <mxCell id="GcgV9i9hBGdFXFpDnu0g-44" value="" style="rounded=0;whiteSpace=wrap;html=1;" vertex="1" parent="1">
          <mxGeometry x="330" y="280" width="20" height="90" as="geometry" />
        </mxCell>
        <mxCell id="GcgV9i9hBGdFXFpDnu0g-46" value="Request book info" style="text;html=1;align=center;verticalAlign=middle;whiteSpace=wrap;rounded=0;" vertex="1" parent="1">
          <mxGeometry x="160" y="270" width="120" height="30" as="geometry" />
        </mxCell>
        <mxCell id="GcgV9i9hBGdFXFpDnu0g-48" value="" style="endArrow=none;dashed=1;html=1;rounded=0;" edge="1" parent="1" source="GcgV9i9hBGdFXFpDnu0g-58" target="GcgV9i9hBGdFXFpDnu0g-47">
          <mxGeometry width="50" height="50" relative="1" as="geometry">
            <mxPoint x="560" y="560" as="sourcePoint" />
            <mxPoint x="560" y="220" as="targetPoint" />
          </mxGeometry>
        </mxCell>
        <mxCell id="GcgV9i9hBGdFXFpDnu0g-47" value="" style="rounded=0;whiteSpace=wrap;html=1;" vertex="1" parent="1">
          <mxGeometry x="550" y="300" width="20" height="60" as="geometry" />
        </mxCell>
        <mxCell id="GcgV9i9hBGdFXFpDnu0g-49" value="" style="endArrow=classic;html=1;rounded=0;entryX=0;entryY=0.25;entryDx=0;entryDy=0;" edge="1" parent="1" target="GcgV9i9hBGdFXFpDnu0g-47">
          <mxGeometry width="50" height="50" relative="1" as="geometry">
            <mxPoint x="350" y="320" as="sourcePoint" />
            <mxPoint x="550" y="320" as="targetPoint" />
          </mxGeometry>
        </mxCell>
        <mxCell id="GcgV9i9hBGdFXFpDnu0g-50" value="ShowBook(id)" style="text;html=1;align=center;verticalAlign=middle;whiteSpace=wrap;rounded=0;" vertex="1" parent="1">
          <mxGeometry x="425" y="280" width="60" height="30" as="geometry" />
        </mxCell>
        <mxCell id="GcgV9i9hBGdFXFpDnu0g-52" value="Open book tab" style="text;html=1;align=center;verticalAlign=middle;whiteSpace=wrap;rounded=0;" vertex="1" parent="1">
          <mxGeometry x="410" y="360" width="90" height="30" as="geometry" />
        </mxCell>
        <mxCell id="GcgV9i9hBGdFXFpDnu0g-53" value="Response&lt;div&gt;&lt;br&gt;&lt;/div&gt;" style="html=1;verticalAlign=bottom;endArrow=open;dashed=1;endSize=8;curved=0;rounded=0;" edge="1" parent="1">
          <mxGeometry relative="1" as="geometry">
            <mxPoint x="550" y="351" as="sourcePoint" />
            <mxPoint x="350" y="351" as="targetPoint" />
          </mxGeometry>
        </mxCell>
        <mxCell id="GcgV9i9hBGdFXFpDnu0g-54" value="" style="endArrow=classic;html=1;rounded=0;entryX=-0.09;entryY=0.058;entryDx=0;entryDy=0;entryPerimeter=0;" edge="1" parent="1" target="GcgV9i9hBGdFXFpDnu0g-55">
          <mxGeometry width="50" height="50" relative="1" as="geometry">
            <mxPoint x="100" y="430" as="sourcePoint" />
            <mxPoint x="270" y="430" as="targetPoint" />
          </mxGeometry>
        </mxCell>
        <mxCell id="GcgV9i9hBGdFXFpDnu0g-56" value="" style="endArrow=none;dashed=1;html=1;rounded=0;" edge="1" parent="1" source="GcgV9i9hBGdFXFpDnu0g-83" target="GcgV9i9hBGdFXFpDnu0g-55">
          <mxGeometry width="50" height="50" relative="1" as="geometry">
            <mxPoint x="340" y="1000" as="sourcePoint" />
            <mxPoint x="340" y="370" as="targetPoint" />
          </mxGeometry>
        </mxCell>
        <mxCell id="GcgV9i9hBGdFXFpDnu0g-55" value="" style="rounded=0;whiteSpace=wrap;html=1;" vertex="1" parent="1">
          <mxGeometry x="330" y="420" width="20" height="170" as="geometry" />
        </mxCell>
        <mxCell id="GcgV9i9hBGdFXFpDnu0g-57" value="Open book browser" style="text;html=1;align=center;verticalAlign=middle;whiteSpace=wrap;rounded=0;" vertex="1" parent="1">
          <mxGeometry x="160" y="400" width="120" height="30" as="geometry" />
        </mxCell>
        <mxCell id="GcgV9i9hBGdFXFpDnu0g-59" value="" style="endArrow=none;dashed=1;html=1;rounded=0;" edge="1" parent="1" source="GcgV9i9hBGdFXFpDnu0g-86" target="GcgV9i9hBGdFXFpDnu0g-58">
          <mxGeometry width="50" height="50" relative="1" as="geometry">
            <mxPoint x="560" y="990" as="sourcePoint" />
            <mxPoint x="560" y="360" as="targetPoint" />
          </mxGeometry>
        </mxCell>
        <mxCell id="GcgV9i9hBGdFXFpDnu0g-58" value="" style="rounded=0;whiteSpace=wrap;html=1;" vertex="1" parent="1">
          <mxGeometry x="550" y="440" width="20" height="140" as="geometry" />
        </mxCell>
        <mxCell id="GcgV9i9hBGdFXFpDnu0g-60" value="" style="endArrow=classic;html=1;rounded=0;entryX=-0.23;entryY=0.139;entryDx=0;entryDy=0;entryPerimeter=0;" edge="1" parent="1" target="GcgV9i9hBGdFXFpDnu0g-58">
          <mxGeometry width="50" height="50" relative="1" as="geometry">
            <mxPoint x="350" y="460" as="sourcePoint" />
            <mxPoint x="400" y="410" as="targetPoint" />
          </mxGeometry>
        </mxCell>
        <mxCell id="GcgV9i9hBGdFXFpDnu0g-61" value="Request books" style="text;html=1;align=center;verticalAlign=middle;whiteSpace=wrap;rounded=0;" vertex="1" parent="1">
          <mxGeometry x="415" y="430" width="95" height="30" as="geometry" />
        </mxCell>
        <mxCell id="GcgV9i9hBGdFXFpDnu0g-63" value="" style="endArrow=none;dashed=1;html=1;rounded=0;" edge="1" parent="1" source="GcgV9i9hBGdFXFpDnu0g-88" target="GcgV9i9hBGdFXFpDnu0g-62">
          <mxGeometry width="50" height="50" relative="1" as="geometry">
            <mxPoint x="800" y="990" as="sourcePoint" />
            <mxPoint x="800" y="80" as="targetPoint" />
          </mxGeometry>
        </mxCell>
        <mxCell id="GcgV9i9hBGdFXFpDnu0g-62" value="" style="rounded=0;whiteSpace=wrap;html=1;" vertex="1" parent="1">
          <mxGeometry x="790" y="485" width="20" height="60" as="geometry" />
        </mxCell>
        <mxCell id="GcgV9i9hBGdFXFpDnu0g-64" value="" style="endArrow=classic;html=1;rounded=0;entryX=-0.25;entryY=0.147;entryDx=0;entryDy=0;entryPerimeter=0;" edge="1" parent="1" target="GcgV9i9hBGdFXFpDnu0g-62">
          <mxGeometry width="50" height="50" relative="1" as="geometry">
            <mxPoint x="570" y="490" as="sourcePoint" />
            <mxPoint x="620" y="440" as="targetPoint" />
          </mxGeometry>
        </mxCell>
        <mxCell id="GcgV9i9hBGdFXFpDnu0g-65" value="GetAllBooks" style="text;html=1;align=center;verticalAlign=middle;whiteSpace=wrap;rounded=0;" vertex="1" parent="1">
          <mxGeometry x="660" y="455" width="60" height="30" as="geometry" />
        </mxCell>
        <mxCell id="GcgV9i9hBGdFXFpDnu0g-67" value="" style="endArrow=classic;html=1;rounded=0;entryX=1.15;entryY=0.661;entryDx=0;entryDy=0;entryPerimeter=0;" edge="1" parent="1" target="GcgV9i9hBGdFXFpDnu0g-58">
          <mxGeometry width="50" height="50" relative="1" as="geometry">
            <mxPoint x="790" y="535" as="sourcePoint" />
            <mxPoint x="840" y="485" as="targetPoint" />
          </mxGeometry>
        </mxCell>
        <mxCell id="GcgV9i9hBGdFXFpDnu0g-69" value="Data" style="text;html=1;align=center;verticalAlign=middle;whiteSpace=wrap;rounded=0;" vertex="1" parent="1">
          <mxGeometry x="650" y="535" width="60" height="30" as="geometry" />
        </mxCell>
        <mxCell id="GcgV9i9hBGdFXFpDnu0g-70" value="Open tab" style="html=1;verticalAlign=bottom;endArrow=open;dashed=1;endSize=8;curved=0;rounded=0;" edge="1" parent="1">
          <mxGeometry relative="1" as="geometry">
            <mxPoint x="550" y="565" as="sourcePoint" />
            <mxPoint x="350" y="570" as="targetPoint" />
          </mxGeometry>
        </mxCell>
        <mxCell id="GcgV9i9hBGdFXFpDnu0g-71" value="" style="rounded=0;whiteSpace=wrap;html=1;" vertex="1" parent="1">
          <mxGeometry x="330" y="640" width="20" height="180" as="geometry" />
        </mxCell>
        <mxCell id="GcgV9i9hBGdFXFpDnu0g-72" value="Request book info" style="text;html=1;align=center;verticalAlign=middle;whiteSpace=wrap;rounded=0;" vertex="1" parent="1">
          <mxGeometry x="160" y="630" width="120" height="30" as="geometry" />
        </mxCell>
        <mxCell id="GcgV9i9hBGdFXFpDnu0g-73" value="" style="rounded=0;whiteSpace=wrap;html=1;" vertex="1" parent="1">
          <mxGeometry x="550" y="660" width="20" height="160" as="geometry" />
        </mxCell>
        <mxCell id="GcgV9i9hBGdFXFpDnu0g-74" value="" style="endArrow=classic;html=1;rounded=0;entryX=-0.03;entryY=0.114;entryDx=0;entryDy=0;entryPerimeter=0;" edge="1" parent="1" target="GcgV9i9hBGdFXFpDnu0g-73">
          <mxGeometry width="50" height="50" relative="1" as="geometry">
            <mxPoint x="350" y="680" as="sourcePoint" />
            <mxPoint x="550" y="680" as="targetPoint" />
          </mxGeometry>
        </mxCell>
        <mxCell id="GcgV9i9hBGdFXFpDnu0g-75" value="ShowBook(id)" style="text;html=1;align=center;verticalAlign=middle;whiteSpace=wrap;rounded=0;" vertex="1" parent="1">
          <mxGeometry x="425" y="640" width="60" height="30" as="geometry" />
        </mxCell>
        <mxCell id="GcgV9i9hBGdFXFpDnu0g-76" value="Response&lt;div&gt;&lt;br&gt;&lt;/div&gt;" style="html=1;verticalAlign=bottom;endArrow=open;dashed=1;endSize=8;curved=0;rounded=0;" edge="1" parent="1">
          <mxGeometry relative="1" as="geometry">
            <mxPoint x="550" y="711" as="sourcePoint" />
            <mxPoint x="350" y="711" as="targetPoint" />
          </mxGeometry>
        </mxCell>
        <mxCell id="GcgV9i9hBGdFXFpDnu0g-77" value="" style="endArrow=classic;html=1;rounded=0;entryX=-0.19;entryY=0.134;entryDx=0;entryDy=0;entryPerimeter=0;" edge="1" parent="1" target="GcgV9i9hBGdFXFpDnu0g-71">
          <mxGeometry width="50" height="50" relative="1" as="geometry">
            <mxPoint x="90" y="660" as="sourcePoint" />
            <mxPoint x="140" y="620" as="targetPoint" />
          </mxGeometry>
        </mxCell>
        <mxCell id="GcgV9i9hBGdFXFpDnu0g-78" value="" style="endArrow=classic;html=1;rounded=0;entryX=-0.23;entryY=0.623;entryDx=0;entryDy=0;entryPerimeter=0;" edge="1" parent="1" target="GcgV9i9hBGdFXFpDnu0g-71">
          <mxGeometry width="50" height="50" relative="1" as="geometry">
            <mxPoint x="90" y="750" as="sourcePoint" />
            <mxPoint x="140" y="700" as="targetPoint" />
          </mxGeometry>
        </mxCell>
        <mxCell id="GcgV9i9hBGdFXFpDnu0g-79" value="Select book" style="text;html=1;align=center;verticalAlign=middle;whiteSpace=wrap;rounded=0;" vertex="1" parent="1">
          <mxGeometry x="170" y="720" width="70" height="30" as="geometry" />
        </mxCell>
        <mxCell id="GcgV9i9hBGdFXFpDnu0g-80" value="" style="endArrow=classic;html=1;rounded=0;entryX=-0.03;entryY=0.876;entryDx=0;entryDy=0;entryPerimeter=0;" edge="1" parent="1" target="GcgV9i9hBGdFXFpDnu0g-73">
          <mxGeometry width="50" height="50" relative="1" as="geometry">
            <mxPoint x="350" y="800" as="sourcePoint" />
            <mxPoint x="400" y="750" as="targetPoint" />
          </mxGeometry>
        </mxCell>
        <mxCell id="GcgV9i9hBGdFXFpDnu0g-81" value="AddToCart(Book, date)" style="text;html=1;align=center;verticalAlign=middle;whiteSpace=wrap;rounded=0;" vertex="1" parent="1">
          <mxGeometry x="385" y="770" width="140" height="30" as="geometry" />
        </mxCell>
        <mxCell id="GcgV9i9hBGdFXFpDnu0g-82" value="" style="endArrow=classic;html=1;rounded=0;entryX=0;entryY=0.25;entryDx=0;entryDy=0;" edge="1" parent="1" target="GcgV9i9hBGdFXFpDnu0g-83">
          <mxGeometry width="50" height="50" relative="1" as="geometry">
            <mxPoint x="90" y="870" as="sourcePoint" />
            <mxPoint x="280" y="890" as="targetPoint" />
          </mxGeometry>
        </mxCell>
        <mxCell id="GcgV9i9hBGdFXFpDnu0g-84" value="" style="endArrow=none;dashed=1;html=1;rounded=0;" edge="1" parent="1" target="GcgV9i9hBGdFXFpDnu0g-83">
          <mxGeometry width="50" height="50" relative="1" as="geometry">
            <mxPoint x="340" y="1090" as="sourcePoint" />
            <mxPoint x="340" y="590" as="targetPoint" />
          </mxGeometry>
        </mxCell>
        <mxCell id="GcgV9i9hBGdFXFpDnu0g-83" value="" style="rounded=0;whiteSpace=wrap;html=1;" vertex="1" parent="1">
          <mxGeometry x="330" y="860" width="20" height="60" as="geometry" />
        </mxCell>
        <mxCell id="GcgV9i9hBGdFXFpDnu0g-85" value="Rent Books" style="text;html=1;align=center;verticalAlign=middle;whiteSpace=wrap;rounded=0;" vertex="1" parent="1">
          <mxGeometry x="170" y="840" width="80" height="30" as="geometry" />
        </mxCell>
        <mxCell id="GcgV9i9hBGdFXFpDnu0g-87" value="" style="endArrow=none;dashed=1;html=1;rounded=0;" edge="1" parent="1" target="GcgV9i9hBGdFXFpDnu0g-86">
          <mxGeometry width="50" height="50" relative="1" as="geometry">
            <mxPoint x="560" y="1070" as="sourcePoint" />
            <mxPoint x="560" y="580" as="targetPoint" />
          </mxGeometry>
        </mxCell>
        <mxCell id="GcgV9i9hBGdFXFpDnu0g-86" value="" style="rounded=0;whiteSpace=wrap;html=1;" vertex="1" parent="1">
          <mxGeometry x="550" y="890" width="20" height="70" as="geometry" />
        </mxCell>
        <mxCell id="GcgV9i9hBGdFXFpDnu0g-89" value="" style="endArrow=none;dashed=1;html=1;rounded=0;" edge="1" parent="1" target="GcgV9i9hBGdFXFpDnu0g-88">
          <mxGeometry width="50" height="50" relative="1" as="geometry">
            <mxPoint x="800" y="1070" as="sourcePoint" />
            <mxPoint x="800" y="545" as="targetPoint" />
          </mxGeometry>
        </mxCell>
        <mxCell id="GcgV9i9hBGdFXFpDnu0g-88" value="" style="rounded=0;whiteSpace=wrap;html=1;" vertex="1" parent="1">
          <mxGeometry x="790" y="930" width="20" height="70" as="geometry" />
        </mxCell>
        <mxCell id="GcgV9i9hBGdFXFpDnu0g-91" value="" style="endArrow=classic;html=1;rounded=0;" edge="1" parent="1">
          <mxGeometry width="50" height="50" relative="1" as="geometry">
            <mxPoint x="350" y="910" as="sourcePoint" />
            <mxPoint x="550" y="910" as="targetPoint" />
          </mxGeometry>
        </mxCell>
        <mxCell id="GcgV9i9hBGdFXFpDnu0g-92" value="" style="endArrow=classic;html=1;rounded=0;entryX=-0.05;entryY=0.162;entryDx=0;entryDy=0;entryPerimeter=0;" edge="1" parent="1" target="GcgV9i9hBGdFXFpDnu0g-88">
          <mxGeometry width="50" height="50" relative="1" as="geometry">
            <mxPoint x="570" y="939.5" as="sourcePoint" />
            <mxPoint x="770" y="939.5" as="targetPoint" />
          </mxGeometry>
        </mxCell>
        <mxCell id="GcgV9i9hBGdFXFpDnu0g-93" value="RentAllBooks" style="text;html=1;align=center;verticalAlign=middle;whiteSpace=wrap;rounded=0;" vertex="1" parent="1">
          <mxGeometry x="410" y="875" width="60" height="30" as="geometry" />
        </mxCell>
        <mxCell id="GcgV9i9hBGdFXFpDnu0g-94" value="Add(Rental)" style="text;html=1;align=center;verticalAlign=middle;whiteSpace=wrap;rounded=0;" vertex="1" parent="1">
          <mxGeometry x="650" y="910" width="60" height="30" as="geometry" />
        </mxCell>
        <mxCell id="GcgV9i9hBGdFXFpDnu0g-96" value="Response" style="html=1;verticalAlign=bottom;endArrow=open;dashed=1;endSize=8;curved=0;rounded=0;" edge="1" parent="1">
          <mxGeometry relative="1" as="geometry">
            <mxPoint x="790" y="990" as="sourcePoint" />
            <mxPoint x="90" y="980" as="targetPoint" />
          </mxGeometry>
        </mxCell>
      </root>
    </mxGraphModel>
  </diagram>
</mxfile>
